<?xml version="1.0" standalone="no"?>
<!DOCTYPE svg PUBLIC "-//W3C//DTD SVG 20010904//EN"
 "http://www.w3.org/TR/2001/REC-SVG-20010904/DTD/svg10.dtd">
<svg version="1.0" xmlns="http://www.w3.org/2000/svg"
 width="60.000000pt" height="50.000000pt" viewBox="0 0 216.000000 49.000000"
 preserveAspectRatio="xMidYMid meet">

<g transform="translate(0.000000,39.000000) scale(0.100000,-0.100000)"
fill="#000000" stroke="none">
<path d="M895 331 c-51 -23 -85 -85 -85 -157 0 -92 53 -154 132 -154 58 0 88
15 88 46 0 21 -3 25 -17 18 -10 -4 -34 -9 -53 -11 -53 -7 -83 29 -84 101 -1
92 58 142 119 102 13 -9 27 -16 30 -16 12 0 4 48 -10 60 -19 16 -94 23 -120
11z"/>
<path d="M34 317 c-2 -7 -3 -74 -2 -148 l3 -134 81 0 c93 1 127 16 150 70 35
84 6 183 -61 211 -44 18 -164 19 -171 1z m139 -48 c45 -21 61 -93 32 -148 -16
-33 -33 -41 -81 -41 l-34 0 0 100 0 100 30 0 c16 0 40 -5 53 -11z"/>
<path d="M334 317 c-2 -7 -3 -74 -2 -148 l3 -134 83 -3 c82 -3 82 -3 82 23 0
24 -3 25 -55 25 l-55 0 0 125 0 125 -25 0 c-14 0 -28 -6 -31 -13z"/>
<path d="M599 303 c-32 -83 -89 -250 -89 -261 0 -9 10 -12 27 -10 21 2 29 10
37 36 l9 33 61 -3 c59 -3 61 -4 70 -35 7 -27 14 -33 37 -33 38 0 37 8 -20 165
l-47 130 -37 3 c-33 3 -38 0 -48 -25z m80 -140 c1 -9 -13 -13 -39 -13 -22 0
-40 2 -40 4 0 4 27 82 36 106 4 10 13 -3 24 -35 10 -27 19 -56 19 -62z"/>
<path d="M1074 317 c-2 -7 -3 -74 -2 -148 l3 -134 88 -3 87 -3 0 26 c0 24 -2
25 -60 25 l-60 0 0 40 0 40 50 0 c47 0 50 2 50 25 0 23 -3 25 -50 25 l-50 0 0
35 0 35 60 0 c57 0 60 1 60 25 0 25 -1 25 -85 25 -61 0 -87 -4 -91 -13z"/>
<path d="M1304 317 c-2 -7 -3 -74 -2 -148 l3 -134 28 -3 c27 -3 27 -3 27 58 0
61 0 61 28 58 22 -2 32 -13 54 -61 25 -51 31 -57 58 -57 16 0 30 2 30 4 0 11
-44 103 -56 117 -12 13 -11 19 11 39 41 38 33 100 -16 125 -36 19 -158 20
-165 2z m140 -59 c17 -27 -5 -52 -48 -56 l-36 -3 0 41 0 41 36 -3 c22 -2 42
-10 48 -20z"/>
<path d="M1574 317 c-2 -7 -3 -74 -2 -148 l3 -134 81 0 c93 1 127 16 150 70
35 84 6 183 -61 211 -44 18 -164 19 -171 1z m139 -48 c45 -21 61 -93 32 -148
-16 -33 -33 -41 -81 -41 l-34 0 0 100 0 100 30 0 c16 0 40 -5 53 -11z"/>
<path d="M1939 303 c-32 -83 -89 -250 -89 -261 0 -9 10 -12 27 -10 21 2 29 10
37 36 l9 33 61 -3 c59 -3 61 -4 70 -35 7 -27 14 -33 37 -33 38 0 37 8 -20 165
l-47 130 -37 3 c-33 3 -38 0 -48 -25z m80 -140 c1 -9 -13 -13 -39 -13 -22 0
-40 2 -40 4 0 4 27 82 36 106 4 10 13 -3 24 -35 10 -27 19 -56 19 -62z"/>
</g>
</svg>
